<svg xmlns="http://www.w3.org/2000/svg" xmlns:xlink="http://www.w3.org/1999/xlink" viewBox="0 0 1500 1000"><defs><style>.a{clip-path:url(#e);}.b{fill:url(#a);}.c{fill:url(#b);}.d{fill:url(#c);}.e,.g{fill:#1d127d;font-family:JosefinSans-Regular, Josefin Sans;}.e{font-size:19px;}.f{fill:#e535ab;}.g{font-size:20px;}</style><linearGradient id="a" x1="0.5" y1="0.849" x2="0.5" y2="1.326" gradientUnits="objectBoundingBox"><stop offset="0" stop-color="#16cbc4"/><stop offset="1" stop-color="#e6e6e6" stop-opacity="0"/></linearGradient><linearGradient id="b" x1="0.5" y1="0.858" x2="0.5" y2="1.348" gradientUnits="objectBoundingBox"><stop offset="0" stop-color="#16cbc4"/><stop offset="1" stop-color="#ebebeb" stop-opacity="0"/></linearGradient><linearGradient id="c" x1="0.5" y1="0.849" x2="0.5" y2="1.326" gradientUnits="objectBoundingBox"><stop offset="0" stop-color="#e535ab" stop-opacity="0.502"/><stop offset="1" stop-color="#e6e6e6" stop-opacity="0"/></linearGradient><clipPath id="e"><rect width="1500" height="1000"/></clipPath></defs><g id="d" class="a"><path class="b" d="M-970,1000h-600V0h600V125.173l-97.576,72.285a5.439,5.439,0,0,0-2.424,4.336,5.463,5.463,0,0,0,2.406,4.336L-970,278.639v464.6h-77.241a11.144,11.144,0,0,0-6,1.663,5.109,5.109,0,0,0-2.59,4.2v96.76a7.427,7.427,0,0,0,2.59,5.076,8.972,8.972,0,0,0,6,2.541H-970V1000Zm-367.621-437.036a3.678,3.678,0,0,0-3.644,3.7V596.3a3.678,3.678,0,0,0,3.644,3.7h116.606a3.678,3.678,0,0,0,3.644-3.7V566.668a3.678,3.678,0,0,0-3.644-3.7h-7.288v-7.408h7.288a3.678,3.678,0,0,0,3.644-3.7V540.742h.009a46.393,46.393,0,0,0,18.43-3.783,47.149,47.149,0,0,0,15.057-10.318,48.009,48.009,0,0,0,10.152-15.3A48.521,48.521,0,0,0-1170,492.6a48.519,48.519,0,0,0-3.723-18.741,48.036,48.036,0,0,0-10.152-15.3,47.151,47.151,0,0,0-15.057-10.318,46.416,46.416,0,0,0-18.439-3.784,47.093,47.093,0,0,0-6.3.429,63.233,63.233,0,0,0-8.911-18.516,62.177,62.177,0,0,0-13.76-14.149,61.838,61.838,0,0,0-17.248-9.038A60.682,60.682,0,0,0-1282.966,400a61.063,61.063,0,0,0-17.8,2.667,61.372,61.372,0,0,0-17.215,8.36,62.284,62.284,0,0,0-13.63,12.958,63.215,63.215,0,0,0-9.218,16.492,63.7,63.7,0,0,0-3.983,18.965c-1.24-.117-2.5-.177-3.739-.177a39.293,39.293,0,0,0-15.6,3.2,39.931,39.931,0,0,0-12.74,8.731,40.663,40.663,0,0,0-8.591,12.949A41.082,41.082,0,0,0-1388.638,500a41.082,41.082,0,0,0,3.149,15.857,40.662,40.662,0,0,0,8.591,12.949,39.925,39.925,0,0,0,12.74,8.731,39.291,39.291,0,0,0,15.6,3.2h7.288v11.111a3.678,3.678,0,0,0,3.644,3.7h7.287v7.408Zm112.962,29.628h-109.318V570.371h109.318v22.22Zm-10.931-29.628h-87.455v-7.408h87.456v7.407Zm10.931-14.815h-109.318V525.929h109.318v22.22Zm-116.606-14.813h-7.288a32.123,32.123,0,0,1-12.765-2.62,32.668,32.668,0,0,1-10.425-7.143,33.246,33.246,0,0,1-7.027-10.595A33.582,33.582,0,0,1-1381.35,500a33.591,33.591,0,0,1,2.578-12.974,33.254,33.254,0,0,1,7.027-10.6,32.689,32.689,0,0,1,10.425-7.143,32.133,32.133,0,0,1,12.765-2.619,32.8,32.8,0,0,1,6.6.678,3.558,3.558,0,0,0,.709.07,3.665,3.665,0,0,0,2.34-.851,3.71,3.71,0,0,0,1.316-2.9c0-.068-.028-.554-.03-.576l0-.068,0-.052a55.929,55.929,0,0,1,4.279-21.615,55.77,55.77,0,0,1,5.029-9.435,55.818,55.818,0,0,1,6.665-8.222,55.315,55.315,0,0,1,8.08-6.785,54.314,54.314,0,0,1,9.277-5.126,53.522,53.522,0,0,1,21.262-4.378h.036a53.668,53.668,0,0,1,18.124,3.138,54.267,54.267,0,0,1,15.692,8.777,55.131,55.131,0,0,1,12.064,13.457,55.824,55.824,0,0,1,7.238,17.178,3.645,3.645,0,0,0,3.542,2.841,3.561,3.561,0,0,0,.744-.078,39.792,39.792,0,0,1,8.248-.871,39.191,39.191,0,0,1,13.405,2.362,40.017,40.017,0,0,1,11.675,6.637,40.37,40.37,0,0,1,8.932,10.24,40.99,40.99,0,0,1,5.18,13.168,41.155,41.155,0,0,1,.112,16.178,40.992,40.992,0,0,1-5.8,14.462,40.3,40.3,0,0,1-10.712,11.2,39.483,39.483,0,0,1-14.627,6.38,39.557,39.557,0,0,1-8.194.863l0-11.111a3.678,3.678,0,0,0-3.644-3.7h-36.439V485.189h33.465a10.964,10.964,0,0,0,10.306,7.411,10.756,10.756,0,0,0,3.645-.639,11.169,11.169,0,0,0,6.662-14.179,10.962,10.962,0,0,0-10.307-7.41,10.73,10.73,0,0,0-3.643.638,10.966,10.966,0,0,0-4.085,2.619,11.215,11.215,0,0,0-2.578,4.152H-1261.1a3.679,3.679,0,0,0-3.645,3.7v37.036h-18.22V448.154h15.246a10.966,10.966,0,0,0,10.308,7.411,10.742,10.742,0,0,0,3.643-.639,11.172,11.172,0,0,0,6.663-14.179,10.963,10.963,0,0,0-10.306-7.411,10.742,10.742,0,0,0-3.644.639,10.955,10.955,0,0,0-4.086,2.618,11.216,11.216,0,0,0-2.578,4.154h-18.889a3.679,3.679,0,0,0-3.645,3.7v74.071h-18.219V492.6a3.678,3.678,0,0,0-3.644-3.7h-18.89a10.961,10.961,0,0,0-10.3-7.41,10.74,10.74,0,0,0-3.644.639,11.172,11.172,0,0,0-6.664,14.178,10.965,10.965,0,0,0,10.307,7.41,10.751,10.751,0,0,0,3.645-.639,10.987,10.987,0,0,0,4.085-2.618,11.222,11.222,0,0,0,2.576-4.154h15.248v22.222h-21.864a3.678,3.678,0,0,0-3.644,3.7v11.111Zm0-37.037a3.678,3.678,0,0,1-3.643-3.7,3.678,3.678,0,0,1,3.643-3.7,3.678,3.678,0,0,1,3.644,3.7A3.678,3.678,0,0,1-1341.266,496.3Zm127.538-11.111a3.678,3.678,0,0,1-3.644-3.7,3.678,3.678,0,0,1,3.644-3.7,3.678,3.678,0,0,1,3.644,3.7A3.678,3.678,0,0,1-1213.728,485.189Zm-43.727-37.035a3.678,3.678,0,0,1-3.643-3.7,3.678,3.678,0,0,1,3.643-3.7,3.678,3.678,0,0,1,3.644,3.7A3.678,3.678,0,0,1-1257.456,448.154Z" transform="translate(1570.001)"/><path class="c" d="M-584.168,1000h-600V875.318l97.577-72.286a5.442,5.442,0,0,0,2.423-4.336,5.463,5.463,0,0,0-2.407-4.336l-97.593-72.509V257.22h77.241a11.143,11.143,0,0,0,6-1.662,5.109,5.109,0,0,0,2.59-4.2V154.6a7.424,7.424,0,0,0-2.59-5.076,8.969,8.969,0,0,0-6-2.542h-77.241V0h600V1000ZM-1019.8,554.819a3.849,3.849,0,0,0-3.845,3.844v10.561a12.455,12.455,0,0,0,12.441,12.441h214.591a12.455,12.455,0,0,0,12.441-12.441V558.663a3.811,3.811,0,0,0-1.125-2.717,3.817,3.817,0,0,0-2.719-1.126h-6.019V432.977a14.66,14.66,0,0,0-14.643-14.643h-190.46a14.659,14.659,0,0,0-14.642,14.643V554.819Zm223.188,19.158H-1011.2a4.758,4.758,0,0,1-4.753-4.752v-6.718h95.647v2.011a6.765,6.765,0,0,0,6.758,6.757h19.289a6.765,6.765,0,0,0,6.757-6.757v-2.011h95.647v6.718A4.758,4.758,0,0,1-796.608,573.978Zm-97.652-7.827h-19.29a1.633,1.633,0,0,1-1.631-1.632v-2.011h22.552v2.011A1.634,1.634,0,0,1-894.26,566.15Zm92.54-11.331h-204.368V432.977a6.962,6.962,0,0,1,6.953-6.955h190.46a6.963,6.963,0,0,1,6.954,6.955Z" transform="translate(2084.168)"/><path class="d" d="M-1270-199h-300V-346.007h218.593v67.367c0,2.477,1.992,4.7,5.076,5.658a10.771,10.771,0,0,0,3.16.465,9.781,9.781,0,0,0,5.82-1.788L-1270-324.2V-199Zm-81.407-257.245H-1570V-920.819l67.333,50.026a9.79,9.79,0,0,0,5.82,1.794,10.672,10.672,0,0,0,3.162-.472c3.093-.958,5.092-3.18,5.092-5.658v-67.109H-1270v464.575l-67.333-50.026a9.791,9.791,0,0,0-5.82-1.794,10.646,10.646,0,0,0-3.162.472c-3.093.958-5.092,3.179-5.092,5.659v67.109h0Zm-126.087-189.734,40.746,23.525a17.719,17.719,0,0,0-.715,5,17.553,17.553,0,0,0,5.169,12.5,17.552,17.552,0,0,0,12.5,5.169,17.684,17.684,0,0,0,17.664-17.664,17.694,17.694,0,0,0-.892-5.567l40.507-23.387a17.528,17.528,0,0,0,4.37,3.546,17.718,17.718,0,0,0,8.816,2.359,17.816,17.816,0,0,0,8.735-2.292,17.569,17.569,0,0,0,6.593-6.545,17.488,17.488,0,0,0,1.8-13.375,17.6,17.6,0,0,0-8.276-10.768,17.715,17.715,0,0,0-4.656-1.862V-722.43a17.719,17.719,0,0,0,4.707-1.875,17.631,17.631,0,0,0,8.231-10.743,17.581,17.581,0,0,0-1.752-13.4,17.746,17.746,0,0,0-6.615-6.546,17.788,17.788,0,0,0-8.723-2.292,17.7,17.7,0,0,0-8.8,2.359,17.808,17.808,0,0,0-4.01,3.173l-40.755-23.531a17.756,17.756,0,0,0,.729-5.051,17.553,17.553,0,0,0-5.169-12.5A17.552,17.552,0,0,0-1419.8-798a17.552,17.552,0,0,0-12.5,5.169,17.553,17.553,0,0,0-5.169,12.5,17.747,17.747,0,0,0,.722,5.024l-40.767,23.537a17.831,17.831,0,0,0-3.991-3.153,17.713,17.713,0,0,0-8.815-2.359,17.812,17.812,0,0,0-8.735,2.292,17.57,17.57,0,0,0-6.593,6.546,17.6,17.6,0,0,0-2.226,6.655,17.682,17.682,0,0,0,.474,6.764,17.609,17.609,0,0,0,2.97,6.09,17.466,17.466,0,0,0,5.262,4.634,17.7,17.7,0,0,0,4.706,1.875v47.08a17.753,17.753,0,0,0-4.657,1.863,17.629,17.629,0,0,0-8.231,10.743,17.582,17.582,0,0,0,1.753,13.4,17.587,17.587,0,0,0,6.582,6.545,17.761,17.761,0,0,0,8.724,2.292,17.851,17.851,0,0,0,8.838-2.359,17.815,17.815,0,0,0,3.952-3.113Zm70.759,16.621v0h0a17.6,17.6,0,0,0-5.8-4.208,17.563,17.563,0,0,0-7.264-1.553,17.581,17.581,0,0,0-7.035,1.452,17.573,17.573,0,0,0-5.691,3.951l-40.787-23.548c.065-.224.127-.454.183-.684h106.656c.094.384.2.774.326,1.158Zm40.245-32.995h-106.616a17.734,17.734,0,0,0-1.864-4.657,17.793,17.793,0,0,0-3.1-3.944l53.354-92.41a17.737,17.737,0,0,0,4.921.692,17.763,17.763,0,0,0,4.936-.7l53.344,92.392a17.569,17.569,0,0,0-3.109,3.966,17.731,17.731,0,0,0-1.862,4.656h0Zm-118.869-12.788h0c-.225-.065-.458-.128-.694-.186v-47.145a17.612,17.612,0,0,0,6.27-2.953,17.45,17.45,0,0,0,4.763-5.359,17.585,17.585,0,0,0,2.245-6.8,17.61,17.61,0,0,0-.573-6.89l40.842-23.581c.162.167.331.336.5.5l-53.357,92.412Zm131.131-.01-53.357-92.414c.152-.146.311-.3.473-.47l40.854,23.587a17.629,17.629,0,0,0-.564,6.878,17.576,17.576,0,0,0,2.242,6.786,17.461,17.461,0,0,0,4.764,5.359,17.615,17.615,0,0,0,6.271,2.953v47.14c-.208.051-.431.11-.683.182ZM-1270-1052.476h-218.594v-67.367c0-2.477-1.992-4.7-5.076-5.658a10.8,10.8,0,0,0-3.161-.466,9.784,9.784,0,0,0-5.82,1.789L-1570-1074.287V-1199h300v146.523Z" transform="translate(2170 1199)"/><text class="e" transform="translate(673.5 147)"><tspan x="0" y="14">query </tspan><tspan class="f" y="14">nombre</tspan><tspan y="14">{</tspan><tspan x="0" y="37" xml:space="preserve">    </tspan><tspan class="f" y="37">schema</tspan><tspan y="37">{</tspan><tspan x="0" y="60" xml:space="preserve">        </tspan><tspan class="f" y="60">elemento</tspan><tspan y="60">{</tspan><tspan x="0" y="83" xml:space="preserve">            </tspan><tspan class="f" y="83">atributo</tspan><tspan x="0" y="106" xml:space="preserve">        }}}</tspan></text><text class="g" transform="translate(673.5 744)"><tspan x="0" y="15">data: {</tspan><tspan x="0" y="39" xml:space="preserve">    elemento:  {</tspan><tspan x="0" y="63" xml:space="preserve">        atributo: ‘val’</tspan><tspan x="0" y="87" xml:space="preserve">        }</tspan><tspan x="0" y="111" xml:space="preserve">    }</tspan></text></g></svg>